solid STL generated by MeshLab
  facet normal  0.000000e+00  0.000000e+00  1.000000e+00
    outer loop
      vertex   0.000000e+00  3.000000e-01  1.000000e-01
      vertex   0.000000e+00  0.000000e+00  1.000000e-01
      vertex   4.999998e-02  1.250000e-01  1.000000e-01
    endloop
  endfacet
  facet normal  0.000000e+00  0.000000e+00  1.000000e+00
    outer loop
      vertex   4.999998e-02  1.250000e-01  1.000000e-01
      vertex   0.000000e+00  0.000000e+00  1.000000e-01
      vertex   4.999998e-02  0.000000e+00  1.000000e-01
    endloop
  endfacet
  facet normal  0.000000e+00  0.000000e+00  1.000000e+00
    outer loop
      vertex   1.500000e-01  2.500000e-01  1.000000e-01
      vertex   1.066987e-01  1.750000e-01  1.000000e-01
      vertex   1.500000e-01  1.500000e-01  1.000000e-01
    endloop
  endfacet
  facet normal  0.000000e+00  0.000000e+00  1.000000e+00
    outer loop
      vertex   1.500000e-01  1.500000e-01  1.000000e-01
      vertex   1.066987e-01  1.750000e-01  1.000000e-01
      vertex   2.000000e-01  6.339747e-02  1.000000e-01
    endloop
  endfacet
  facet normal  0.000000e+00  0.000000e+00  1.000000e+00
    outer loop
      vertex   2.000000e-01  6.339747e-02  1.000000e-01
      vertex   1.066987e-01  1.750000e-01  1.000000e-01
      vertex   2.000000e-01  0.000000e+00  1.000000e-01
    endloop
  endfacet
  facet normal  0.000000e+00  0.000000e+00  1.000000e+00
    outer loop
      vertex   2.000000e-01  0.000000e+00  1.000000e-01
      vertex   1.066987e-01  1.750000e-01  1.000000e-01
      vertex   1.500000e-01  5.000000e-02  1.000000e-01
    endloop
  endfacet
  facet normal  0.000000e+00  0.000000e+00  1.000000e+00
    outer loop
      vertex   2.000000e-01  0.000000e+00  1.000000e-01
      vertex   1.500000e-01  5.000000e-02  1.000000e-01
      vertex   1.500000e-01  0.000000e+00  1.000000e-01
    endloop
  endfacet
  facet normal  0.000000e+00  0.000000e+00  1.000000e+00
    outer loop
      vertex   1.500000e-01  1.500000e-01  1.000000e-01
      vertex   2.000000e-01  2.366025e-01  1.000000e-01
      vertex   1.500000e-01  2.500000e-01  1.000000e-01
    endloop
  endfacet
  facet normal -0.000000e+00  0.000000e+00  1.000000e+00
    outer loop
      vertex   1.500000e-01  2.500000e-01  1.000000e-01
      vertex   2.000000e-01  2.366025e-01  1.000000e-01
      vertex   2.000000e-01  3.000000e-01  1.000000e-01
    endloop
  endfacet
  facet normal  0.000000e+00 -0.000000e+00  1.000000e+00
    outer loop
      vertex   1.500000e-01  2.500000e-01  1.000000e-01
      vertex   2.000000e-01  3.000000e-01  1.000000e-01
      vertex   4.999998e-02  2.500000e-01  1.000000e-01
    endloop
  endfacet
  facet normal  0.000000e+00 -0.000000e+00  1.000000e+00
    outer loop
      vertex   4.999998e-02  2.500000e-01  1.000000e-01
      vertex   2.000000e-01  3.000000e-01  1.000000e-01
      vertex   0.000000e+00  3.000000e-01  1.000000e-01
    endloop
  endfacet
  facet normal  0.000000e+00  0.000000e+00  1.000000e+00
    outer loop
      vertex   4.999998e-02  2.500000e-01  1.000000e-01
      vertex   0.000000e+00  3.000000e-01  1.000000e-01
      vertex   4.999998e-02  1.750000e-01  1.000000e-01
    endloop
  endfacet
  facet normal  0.000000e+00  0.000000e+00  1.000000e+00
    outer loop
      vertex   4.999998e-02  1.750000e-01  1.000000e-01
      vertex   0.000000e+00  3.000000e-01  1.000000e-01
      vertex   4.999998e-02  1.250000e-01  1.000000e-01
    endloop
  endfacet
  facet normal -0.000000e+00  0.000000e+00  1.000000e+00
    outer loop
      vertex   4.999998e-02  1.750000e-01  1.000000e-01
      vertex   4.999998e-02  1.250000e-01  1.000000e-01
      vertex   1.066987e-01  1.750000e-01  1.000000e-01
    endloop
  endfacet
  facet normal  0.000000e+00  0.000000e+00  1.000000e+00
    outer loop
      vertex   1.066987e-01  1.750000e-01  1.000000e-01
      vertex   4.999998e-02  1.250000e-01  1.000000e-01
      vertex   1.066987e-01  1.250000e-01  1.000000e-01
    endloop
  endfacet
  facet normal  0.000000e+00  0.000000e+00  1.000000e+00
    outer loop
      vertex   1.066987e-01  1.750000e-01  1.000000e-01
      vertex   1.066987e-01  1.250000e-01  1.000000e-01
      vertex   1.500000e-01  5.000000e-02  1.000000e-01
    endloop
  endfacet
  facet normal  0.000000e+00 -0.000000e+00 -1.000000e+00
    outer loop
      vertex   4.999998e-02  1.250000e-01  0.000000e+00
      vertex   4.999998e-02  0.000000e+00  0.000000e+00
      vertex   0.000000e+00  0.000000e+00  0.000000e+00
    endloop
  endfacet
  facet normal  0.000000e+00  0.000000e+00 -1.000000e+00
    outer loop
      vertex   1.500000e-01  1.500000e-01  0.000000e+00
      vertex   2.000000e-01  6.339747e-02  0.000000e+00
      vertex   2.000000e-01  0.000000e+00  0.000000e+00
    endloop
  endfacet
  facet normal -0.000000e+00  0.000000e+00 -1.000000e+00
    outer loop
      vertex   2.000000e-01  3.000000e-01  0.000000e+00
      vertex   1.500000e-01  2.500000e-01  0.000000e+00
      vertex   0.000000e+00  3.000000e-01  0.000000e+00
    endloop
  endfacet
  facet normal  0.000000e+00  0.000000e+00 -1.000000e+00
    outer loop
      vertex   0.000000e+00  3.000000e-01  0.000000e+00
      vertex   1.500000e-01  2.500000e-01  0.000000e+00
      vertex   4.999998e-02  2.500000e-01  0.000000e+00
    endloop
  endfacet
  facet normal  0.000000e+00  0.000000e+00 -1.000000e+00
    outer loop
      vertex   0.000000e+00  3.000000e-01  0.000000e+00
      vertex   4.999998e-02  2.500000e-01  0.000000e+00
      vertex   4.999998e-02  1.750000e-01  0.000000e+00
    endloop
  endfacet
  facet normal  0.000000e+00 -0.000000e+00 -1.000000e+00
    outer loop
      vertex   2.000000e-01  3.000000e-01  0.000000e+00
      vertex   2.000000e-01  2.366025e-01  0.000000e+00
      vertex   1.500000e-01  2.500000e-01  0.000000e+00
    endloop
  endfacet
  facet normal  0.000000e+00  0.000000e+00 -1.000000e+00
    outer loop
      vertex   1.500000e-01  2.500000e-01  0.000000e+00
      vertex   2.000000e-01  2.366025e-01  0.000000e+00
      vertex   1.500000e-01  1.500000e-01  0.000000e+00
    endloop
  endfacet
  facet normal  0.000000e+00 -0.000000e+00 -1.000000e+00
    outer loop
      vertex   1.500000e-01  2.500000e-01  0.000000e+00
      vertex   1.500000e-01  1.500000e-01  0.000000e+00
      vertex   1.066987e-01  1.750000e-01  0.000000e+00
    endloop
  endfacet
  facet normal  0.000000e+00  0.000000e+00 -1.000000e+00
    outer loop
      vertex   1.066987e-01  1.750000e-01  0.000000e+00
      vertex   1.500000e-01  1.500000e-01  0.000000e+00
      vertex   2.000000e-01  0.000000e+00  0.000000e+00
    endloop
  endfacet
  facet normal  0.000000e+00  0.000000e+00 -1.000000e+00
    outer loop
      vertex   0.000000e+00  0.000000e+00  0.000000e+00
      vertex   0.000000e+00  3.000000e-01  0.000000e+00
      vertex   4.999998e-02  1.250000e-01  0.000000e+00
    endloop
  endfacet
  facet normal  0.000000e+00  0.000000e+00 -1.000000e+00
    outer loop
      vertex   4.999998e-02  1.250000e-01  0.000000e+00
      vertex   0.000000e+00  3.000000e-01  0.000000e+00
      vertex   4.999998e-02  1.750000e-01  0.000000e+00
    endloop
  endfacet
  facet normal  0.000000e+00  0.000000e+00 -1.000000e+00
    outer loop
      vertex   4.999998e-02  1.250000e-01  0.000000e+00
      vertex   4.999998e-02  1.750000e-01  0.000000e+00
      vertex   1.066987e-01  1.250000e-01  0.000000e+00
    endloop
  endfacet
  facet normal  0.000000e+00  0.000000e+00 -1.000000e+00
    outer loop
      vertex   1.066987e-01  1.250000e-01  0.000000e+00
      vertex   4.999998e-02  1.750000e-01  0.000000e+00
      vertex   1.066987e-01  1.750000e-01  0.000000e+00
    endloop
  endfacet
  facet normal  0.000000e+00  0.000000e+00 -1.000000e+00
    outer loop
      vertex   1.066987e-01  1.250000e-01  0.000000e+00
      vertex   1.066987e-01  1.750000e-01  0.000000e+00
      vertex   1.500000e-01  5.000000e-02  0.000000e+00
    endloop
  endfacet
  facet normal  0.000000e+00  0.000000e+00 -1.000000e+00
    outer loop
      vertex   1.500000e-01  5.000000e-02  0.000000e+00
      vertex   1.066987e-01  1.750000e-01  0.000000e+00
      vertex   2.000000e-01  0.000000e+00  0.000000e+00
    endloop
  endfacet
  facet normal  0.000000e+00  0.000000e+00 -1.000000e+00
    outer loop
      vertex   1.500000e-01  5.000000e-02  0.000000e+00
      vertex   2.000000e-01  0.000000e+00  0.000000e+00
      vertex   1.500000e-01  0.000000e+00  0.000000e+00
    endloop
  endfacet
  facet normal -0.000000e+00 -1.000000e+00 -0.000000e+00
    outer loop
      vertex   2.000000e-01  0.000000e+00  1.000000e-01
      vertex   1.500000e-01  0.000000e+00  1.000000e-01
      vertex   2.000000e-01  0.000000e+00  0.000000e+00
    endloop
  endfacet
  facet normal  0.000000e+00 -1.000000e+00  0.000000e+00
    outer loop
      vertex   2.000000e-01  0.000000e+00  0.000000e+00
      vertex   1.500000e-01  0.000000e+00  1.000000e-01
      vertex   1.500000e-01  0.000000e+00  0.000000e+00
    endloop
  endfacet
  facet normal  1.000000e+00  0.000000e+00  0.000000e+00
    outer loop
      vertex   2.000000e-01  6.339747e-02  1.000000e-01
      vertex   2.000000e-01  0.000000e+00  1.000000e-01
      vertex   2.000000e-01  6.339747e-02  0.000000e+00
    endloop
  endfacet
  facet normal  1.000000e+00  0.000000e+00  0.000000e+00
    outer loop
      vertex   2.000000e-01  6.339747e-02  0.000000e+00
      vertex   2.000000e-01  0.000000e+00  1.000000e-01
      vertex   2.000000e-01  0.000000e+00  0.000000e+00
    endloop
  endfacet
  facet normal  8.660254e-01  5.000001e-01  0.000000e+00
    outer loop
      vertex   1.500000e-01  1.500000e-01  1.000000e-01
      vertex   2.000000e-01  6.339747e-02  1.000000e-01
      vertex   1.500000e-01  1.500000e-01  0.000000e+00
    endloop
  endfacet
  facet normal  8.660254e-01  5.000001e-01  0.000000e+00
    outer loop
      vertex   1.500000e-01  1.500000e-01  0.000000e+00
      vertex   2.000000e-01  6.339747e-02  1.000000e-01
      vertex   2.000000e-01  6.339747e-02  0.000000e+00
    endloop
  endfacet
  facet normal  8.660254e-01 -5.000000e-01  0.000000e+00
    outer loop
      vertex   2.000000e-01  2.366025e-01  1.000000e-01
      vertex   1.500000e-01  1.500000e-01  1.000000e-01
      vertex   2.000000e-01  2.366025e-01  0.000000e+00
    endloop
  endfacet
  facet normal  8.660254e-01 -5.000000e-01  0.000000e+00
    outer loop
      vertex   2.000000e-01  2.366025e-01  0.000000e+00
      vertex   1.500000e-01  1.500000e-01  1.000000e-01
      vertex   1.500000e-01  1.500000e-01  0.000000e+00
    endloop
  endfacet
  facet normal  1.000000e+00  0.000000e+00  0.000000e+00
    outer loop
      vertex   2.000000e-01  3.000000e-01  1.000000e-01
      vertex   2.000000e-01  2.366025e-01  1.000000e-01
      vertex   2.000000e-01  3.000000e-01  0.000000e+00
    endloop
  endfacet
  facet normal  1.000000e+00  0.000000e+00  0.000000e+00
    outer loop
      vertex   2.000000e-01  3.000000e-01  0.000000e+00
      vertex   2.000000e-01  2.366025e-01  1.000000e-01
      vertex   2.000000e-01  2.366025e-01  0.000000e+00
    endloop
  endfacet
  facet normal -0.000000e+00  1.000000e+00  0.000000e+00
    outer loop
      vertex   0.000000e+00  3.000000e-01  1.000000e-01
      vertex   2.000000e-01  3.000000e-01  1.000000e-01
      vertex   0.000000e+00  3.000000e-01  0.000000e+00
    endloop
  endfacet
  facet normal  0.000000e+00  1.000000e+00  0.000000e+00
    outer loop
      vertex   0.000000e+00  3.000000e-01  0.000000e+00
      vertex   2.000000e-01  3.000000e-01  1.000000e-01
      vertex   2.000000e-01  3.000000e-01  0.000000e+00
    endloop
  endfacet
  facet normal -1.000000e+00  0.000000e+00  0.000000e+00
    outer loop
      vertex   0.000000e+00  0.000000e+00  1.000000e-01
      vertex   0.000000e+00  3.000000e-01  1.000000e-01
      vertex   0.000000e+00  0.000000e+00  0.000000e+00
    endloop
  endfacet
  facet normal -1.000000e+00  0.000000e+00  0.000000e+00
    outer loop
      vertex   0.000000e+00  0.000000e+00  0.000000e+00
      vertex   0.000000e+00  3.000000e-01  1.000000e-01
      vertex   0.000000e+00  3.000000e-01  0.000000e+00
    endloop
  endfacet
  facet normal -0.000000e+00 -1.000000e+00 -0.000000e+00
    outer loop
      vertex   4.999998e-02  0.000000e+00  1.000000e-01
      vertex   0.000000e+00  0.000000e+00  1.000000e-01
      vertex   4.999998e-02  0.000000e+00  0.000000e+00
    endloop
  endfacet
  facet normal  0.000000e+00 -1.000000e+00  0.000000e+00
    outer loop
      vertex   4.999998e-02  0.000000e+00  0.000000e+00
      vertex   0.000000e+00  0.000000e+00  1.000000e-01
      vertex   0.000000e+00  0.000000e+00  0.000000e+00
    endloop
  endfacet
  facet normal  1.000000e+00  0.000000e+00  0.000000e+00
    outer loop
      vertex   4.999998e-02  1.250000e-01  1.000000e-01
      vertex   4.999998e-02  0.000000e+00  1.000000e-01
      vertex   4.999998e-02  1.250000e-01  0.000000e+00
    endloop
  endfacet
  facet normal  1.000000e+00  0.000000e+00  0.000000e+00
    outer loop
      vertex   4.999998e-02  1.250000e-01  0.000000e+00
      vertex   4.999998e-02  0.000000e+00  1.000000e-01
      vertex   4.999998e-02  0.000000e+00  0.000000e+00
    endloop
  endfacet
  facet normal -0.000000e+00 -1.000000e+00 -0.000000e+00
    outer loop
      vertex   1.066987e-01  1.250000e-01  1.000000e-01
      vertex   4.999998e-02  1.250000e-01  1.000000e-01
      vertex   1.066987e-01  1.250000e-01  0.000000e+00
    endloop
  endfacet
  facet normal  0.000000e+00 -1.000000e+00  0.000000e+00
    outer loop
      vertex   1.066987e-01  1.250000e-01  0.000000e+00
      vertex   4.999998e-02  1.250000e-01  1.000000e-01
      vertex   4.999998e-02  1.250000e-01  0.000000e+00
    endloop
  endfacet
  facet normal -8.660254e-01 -4.999999e-01 -0.000000e+00
    outer loop
      vertex   1.500000e-01  5.000000e-02  1.000000e-01
      vertex   1.066987e-01  1.250000e-01  1.000000e-01
      vertex   1.500000e-01  5.000000e-02  0.000000e+00
    endloop
  endfacet
  facet normal -8.660254e-01 -4.999999e-01  0.000000e+00
    outer loop
      vertex   1.500000e-01  5.000000e-02  0.000000e+00
      vertex   1.066987e-01  1.250000e-01  1.000000e-01
      vertex   1.066987e-01  1.250000e-01  0.000000e+00
    endloop
  endfacet
  facet normal -1.000000e+00  0.000000e+00  0.000000e+00
    outer loop
      vertex   1.500000e-01  0.000000e+00  1.000000e-01
      vertex   1.500000e-01  5.000000e-02  1.000000e-01
      vertex   1.500000e-01  0.000000e+00  0.000000e+00
    endloop
  endfacet
  facet normal -1.000000e+00  0.000000e+00  0.000000e+00
    outer loop
      vertex   1.500000e-01  0.000000e+00  0.000000e+00
      vertex   1.500000e-01  5.000000e-02  1.000000e-01
      vertex   1.500000e-01  5.000000e-02  0.000000e+00
    endloop
  endfacet
  facet normal -0.000000e+00  1.000000e+00  0.000000e+00
    outer loop
      vertex   4.999998e-02  1.750000e-01  1.000000e-01
      vertex   1.066987e-01  1.750000e-01  1.000000e-01
      vertex   4.999998e-02  1.750000e-01  0.000000e+00
    endloop
  endfacet
  facet normal  0.000000e+00  1.000000e+00  0.000000e+00
    outer loop
      vertex   4.999998e-02  1.750000e-01  0.000000e+00
      vertex   1.066987e-01  1.750000e-01  1.000000e-01
      vertex   1.066987e-01  1.750000e-01  0.000000e+00
    endloop
  endfacet
  facet normal -8.660254e-01  5.000000e-01  0.000000e+00
    outer loop
      vertex   1.066987e-01  1.750000e-01  1.000000e-01
      vertex   1.500000e-01  2.500000e-01  1.000000e-01
      vertex   1.066987e-01  1.750000e-01  0.000000e+00
    endloop
  endfacet
  facet normal -8.660254e-01  5.000000e-01  0.000000e+00
    outer loop
      vertex   1.066987e-01  1.750000e-01  0.000000e+00
      vertex   1.500000e-01  2.500000e-01  1.000000e-01
      vertex   1.500000e-01  2.500000e-01  0.000000e+00
    endloop
  endfacet
  facet normal -0.000000e+00 -1.000000e+00 -0.000000e+00
    outer loop
      vertex   1.500000e-01  2.500000e-01  1.000000e-01
      vertex   4.999998e-02  2.500000e-01  1.000000e-01
      vertex   1.500000e-01  2.500000e-01  0.000000e+00
    endloop
  endfacet
  facet normal  0.000000e+00 -1.000000e+00  0.000000e+00
    outer loop
      vertex   1.500000e-01  2.500000e-01  0.000000e+00
      vertex   4.999998e-02  2.500000e-01  1.000000e-01
      vertex   4.999998e-02  2.500000e-01  0.000000e+00
    endloop
  endfacet
  facet normal  1.000000e+00  0.000000e+00  0.000000e+00
    outer loop
      vertex   4.999998e-02  2.500000e-01  1.000000e-01
      vertex   4.999998e-02  1.750000e-01  1.000000e-01
      vertex   4.999998e-02  2.500000e-01  0.000000e+00
    endloop
  endfacet
  facet normal  1.000000e+00  0.000000e+00  0.000000e+00
    outer loop
      vertex   4.999998e-02  2.500000e-01  0.000000e+00
      vertex   4.999998e-02  1.750000e-01  1.000000e-01
      vertex   4.999998e-02  1.750000e-01  0.000000e+00
    endloop
  endfacet
  facet normal  0.000000e+00  0.000000e+00  1.000000e+00
    outer loop
      vertex   3.000000e-01  2.500000e-01  1.000000e-01
      vertex   2.500000e-01  3.000000e-01  1.000000e-01
      vertex   3.000000e-01  5.000000e-02  1.000000e-01
    endloop
  endfacet
  facet normal  0.000000e+00  0.000000e+00  1.000000e+00
    outer loop
      vertex   3.000000e-01  5.000000e-02  1.000000e-01
      vertex   2.500000e-01  3.000000e-01  1.000000e-01
      vertex   2.500000e-01  0.000000e+00  1.000000e-01
    endloop
  endfacet
  facet normal -0.000000e+00  0.000000e+00  1.000000e+00
    outer loop
      vertex   3.000000e-01  5.000000e-02  1.000000e-01
      vertex   2.500000e-01  0.000000e+00  1.000000e-01
      vertex   4.000000e-01  5.000000e-02  1.000000e-01
    endloop
  endfacet
  facet normal  0.000000e+00  0.000000e+00  1.000000e+00
    outer loop
      vertex   4.000000e-01  5.000000e-02  1.000000e-01
      vertex   2.500000e-01  0.000000e+00  1.000000e-01
      vertex   4.500000e-01  0.000000e+00  1.000000e-01
    endloop
  endfacet
  facet normal -0.000000e+00  0.000000e+00  1.000000e+00
    outer loop
      vertex   4.000000e-01  5.000000e-02  1.000000e-01
      vertex   4.500000e-01  0.000000e+00  1.000000e-01
      vertex   4.000000e-01  2.500000e-01  1.000000e-01
    endloop
  endfacet
  facet normal -0.000000e+00  0.000000e+00  1.000000e+00
    outer loop
      vertex   4.000000e-01  2.500000e-01  1.000000e-01
      vertex   4.500000e-01  0.000000e+00  1.000000e-01
      vertex   4.500000e-01  3.000000e-01  1.000000e-01
    endloop
  endfacet
  facet normal  0.000000e+00 -0.000000e+00  1.000000e+00
    outer loop
      vertex   4.000000e-01  2.500000e-01  1.000000e-01
      vertex   4.500000e-01  3.000000e-01  1.000000e-01
      vertex   3.000000e-01  2.500000e-01  1.000000e-01
    endloop
  endfacet
  facet normal  0.000000e+00 -0.000000e+00  1.000000e+00
    outer loop
      vertex   3.000000e-01  2.500000e-01  1.000000e-01
      vertex   4.500000e-01  3.000000e-01  1.000000e-01
      vertex   2.500000e-01  3.000000e-01  1.000000e-01
    endloop
  endfacet
  facet normal -0.000000e+00 -0.000000e+00 -1.000000e+00
    outer loop
      vertex   4.000000e-01  5.000000e-02  0.000000e+00
      vertex   4.500000e-01  0.000000e+00  0.000000e+00
      vertex   3.000000e-01  5.000000e-02  0.000000e+00
    endloop
  endfacet
  facet normal  0.000000e+00 -0.000000e+00 -1.000000e+00
    outer loop
      vertex   3.000000e-01  5.000000e-02  0.000000e+00
      vertex   4.500000e-01  0.000000e+00  0.000000e+00
      vertex   2.500000e-01  0.000000e+00  0.000000e+00
    endloop
  endfacet
  facet normal -0.000000e+00  0.000000e+00 -1.000000e+00
    outer loop
      vertex   3.000000e-01  5.000000e-02  0.000000e+00
      vertex   2.500000e-01  0.000000e+00  0.000000e+00
      vertex   3.000000e-01  2.500000e-01  0.000000e+00
    endloop
  endfacet
  facet normal -0.000000e+00  0.000000e+00 -1.000000e+00
    outer loop
      vertex   3.000000e-01  2.500000e-01  0.000000e+00
      vertex   2.500000e-01  0.000000e+00  0.000000e+00
      vertex   2.500000e-01  3.000000e-01  0.000000e+00
    endloop
  endfacet
  facet normal  0.000000e+00  0.000000e+00 -1.000000e+00
    outer loop
      vertex   3.000000e-01  2.500000e-01  0.000000e+00
      vertex   2.500000e-01  3.000000e-01  0.000000e+00
      vertex   4.000000e-01  2.500000e-01  0.000000e+00
    endloop
  endfacet
  facet normal  0.000000e+00  0.000000e+00 -1.000000e+00
    outer loop
      vertex   4.000000e-01  2.500000e-01  0.000000e+00
      vertex   2.500000e-01  3.000000e-01  0.000000e+00
      vertex   4.500000e-01  3.000000e-01  0.000000e+00
    endloop
  endfacet
  facet normal  0.000000e+00  0.000000e+00 -1.000000e+00
    outer loop
      vertex   4.000000e-01  2.500000e-01  0.000000e+00
      vertex   4.500000e-01  3.000000e-01  0.000000e+00
      vertex   4.000000e-01  5.000000e-02  0.000000e+00
    endloop
  endfacet
  facet normal  0.000000e+00  0.000000e+00 -1.000000e+00
    outer loop
      vertex   4.000000e-01  5.000000e-02  0.000000e+00
      vertex   4.500000e-01  3.000000e-01  0.000000e+00
      vertex   4.500000e-01  0.000000e+00  0.000000e+00
    endloop
  endfacet
  facet normal -0.000000e+00  1.000000e+00  0.000000e+00
    outer loop
      vertex   2.500000e-01  3.000000e-01  1.000000e-01
      vertex   4.500000e-01  3.000000e-01  1.000000e-01
      vertex   2.500000e-01  3.000000e-01  0.000000e+00
    endloop
  endfacet
  facet normal  0.000000e+00  1.000000e+00  0.000000e+00
    outer loop
      vertex   2.500000e-01  3.000000e-01  0.000000e+00
      vertex   4.500000e-01  3.000000e-01  1.000000e-01
      vertex   4.500000e-01  3.000000e-01  0.000000e+00
    endloop
  endfacet
  facet normal -1.000000e+00  0.000000e+00  0.000000e+00
    outer loop
      vertex   2.500000e-01  0.000000e+00  1.000000e-01
      vertex   2.500000e-01  3.000000e-01  1.000000e-01
      vertex   2.500000e-01  0.000000e+00  0.000000e+00
    endloop
  endfacet
  facet normal -1.000000e+00  0.000000e+00  0.000000e+00
    outer loop
      vertex   2.500000e-01  0.000000e+00  0.000000e+00
      vertex   2.500000e-01  3.000000e-01  1.000000e-01
      vertex   2.500000e-01  3.000000e-01  0.000000e+00
    endloop
  endfacet
  facet normal -0.000000e+00 -1.000000e+00 -0.000000e+00
    outer loop
      vertex   4.500000e-01  0.000000e+00  1.000000e-01
      vertex   2.500000e-01  0.000000e+00  1.000000e-01
      vertex   4.500000e-01  0.000000e+00  0.000000e+00
    endloop
  endfacet
  facet normal  0.000000e+00 -1.000000e+00  0.000000e+00
    outer loop
      vertex   4.500000e-01  0.000000e+00  0.000000e+00
      vertex   2.500000e-01  0.000000e+00  1.000000e-01
      vertex   2.500000e-01  0.000000e+00  0.000000e+00
    endloop
  endfacet
  facet normal  1.000000e+00  0.000000e+00  0.000000e+00
    outer loop
      vertex   4.500000e-01  3.000000e-01  1.000000e-01
      vertex   4.500000e-01  0.000000e+00  1.000000e-01
      vertex   4.500000e-01  3.000000e-01  0.000000e+00
    endloop
  endfacet
  facet normal  1.000000e+00  0.000000e+00  0.000000e+00
    outer loop
      vertex   4.500000e-01  3.000000e-01  0.000000e+00
      vertex   4.500000e-01  0.000000e+00  1.000000e-01
      vertex   4.500000e-01  0.000000e+00  0.000000e+00
    endloop
  endfacet
  facet normal -0.000000e+00 -1.000000e+00 -0.000000e+00
    outer loop
      vertex   4.000000e-01  2.500000e-01  1.000000e-01
      vertex   3.000000e-01  2.500000e-01  1.000000e-01
      vertex   4.000000e-01  2.500000e-01  0.000000e+00
    endloop
  endfacet
  facet normal  0.000000e+00 -1.000000e+00  0.000000e+00
    outer loop
      vertex   4.000000e-01  2.500000e-01  0.000000e+00
      vertex   3.000000e-01  2.500000e-01  1.000000e-01
      vertex   3.000000e-01  2.500000e-01  0.000000e+00
    endloop
  endfacet
  facet normal  1.000000e+00  0.000000e+00  0.000000e+00
    outer loop
      vertex   3.000000e-01  2.500000e-01  1.000000e-01
      vertex   3.000000e-01  5.000000e-02  1.000000e-01
      vertex   3.000000e-01  2.500000e-01  0.000000e+00
    endloop
  endfacet
  facet normal  1.000000e+00  0.000000e+00  0.000000e+00
    outer loop
      vertex   3.000000e-01  2.500000e-01  0.000000e+00
      vertex   3.000000e-01  5.000000e-02  1.000000e-01
      vertex   3.000000e-01  5.000000e-02  0.000000e+00
    endloop
  endfacet
  facet normal -0.000000e+00  1.000000e+00  0.000000e+00
    outer loop
      vertex   3.000000e-01  5.000000e-02  1.000000e-01
      vertex   4.000000e-01  5.000000e-02  1.000000e-01
      vertex   3.000000e-01  5.000000e-02  0.000000e+00
    endloop
  endfacet
  facet normal  0.000000e+00  1.000000e+00  0.000000e+00
    outer loop
      vertex   3.000000e-01  5.000000e-02  0.000000e+00
      vertex   4.000000e-01  5.000000e-02  1.000000e-01
      vertex   4.000000e-01  5.000000e-02  0.000000e+00
    endloop
  endfacet
  facet normal -1.000000e+00  0.000000e+00  0.000000e+00
    outer loop
      vertex   4.000000e-01  5.000000e-02  1.000000e-01
      vertex   4.000000e-01  2.500000e-01  1.000000e-01
      vertex   4.000000e-01  5.000000e-02  0.000000e+00
    endloop
  endfacet
  facet normal -1.000000e+00  0.000000e+00  0.000000e+00
    outer loop
      vertex   4.000000e-01  5.000000e-02  0.000000e+00
      vertex   4.000000e-01  2.500000e-01  1.000000e-01
      vertex   4.000000e-01  2.500000e-01  0.000000e+00
    endloop
  endfacet
  facet normal  0.000000e+00  0.000000e+00  1.000000e+00
    outer loop
      vertex   5.000000e-01  0.000000e+00  1.000000e-01
      vertex   7.000000e-01  0.000000e+00  1.000000e-01
      vertex   6.500000e-01  5.000000e-02  1.000000e-01
    endloop
  endfacet
  facet normal  0.000000e+00  0.000000e+00  1.000000e+00
    outer loop
      vertex   6.500000e-01  5.000000e-02  1.000000e-01
      vertex   5.500000e-01  5.000000e-02  1.000000e-01
      vertex   5.000000e-01  0.000000e+00  1.000000e-01
    endloop
  endfacet
  facet normal  0.000000e+00  0.000000e+00  1.000000e+00
    outer loop
      vertex   5.000000e-01  0.000000e+00  1.000000e-01
      vertex   5.500000e-01  5.000000e-02  1.000000e-01
      vertex   5.500000e-01  1.250000e-01  1.000000e-01
    endloop
  endfacet
  facet normal  0.000000e+00  0.000000e+00  1.000000e+00
    outer loop
      vertex   5.000000e-01  0.000000e+00  1.000000e-01
      vertex   5.500000e-01  1.250000e-01  1.000000e-01
      vertex   5.000000e-01  3.000000e-01  1.000000e-01
    endloop
  endfacet
  facet normal  0.000000e+00  0.000000e+00  1.000000e+00
    outer loop
      vertex   6.500000e-01  1.500000e-01  1.000000e-01
      vertex   7.000000e-01  2.366025e-01  1.000000e-01
      vertex   7.000000e-01  3.000000e-01  1.000000e-01
    endloop
  endfacet
  facet normal  0.000000e+00  0.000000e+00  1.000000e+00
    outer loop
      vertex   7.000000e-01  3.000000e-01  1.000000e-01
      vertex   5.000000e-01  3.000000e-01  1.000000e-01
      vertex   5.500000e-01  2.500000e-01  1.000000e-01
    endloop
  endfacet
  facet normal  0.000000e+00  0.000000e+00  1.000000e+00
    outer loop
      vertex   5.500000e-01  2.500000e-01  1.000000e-01
      vertex   5.000000e-01  3.000000e-01  1.000000e-01
      vertex   5.500000e-01  1.750000e-01  1.000000e-01
    endloop
  endfacet
  facet normal  0.000000e+00  0.000000e+00  1.000000e+00
    outer loop
      vertex   5.500000e-01  1.750000e-01  1.000000e-01
      vertex   5.000000e-01  3.000000e-01  1.000000e-01
      vertex   5.500000e-01  1.250000e-01  1.000000e-01
    endloop
  endfacet
  facet normal -0.000000e+00  0.000000e+00  1.000000e+00
    outer loop
      vertex   5.500000e-01  1.750000e-01  1.000000e-01
      vertex   5.500000e-01  1.250000e-01  1.000000e-01
      vertex   6.066988e-01  1.750000e-01  1.000000e-01
    endloop
  endfacet
  facet normal  0.000000e+00  0.000000e+00  1.000000e+00
    outer loop
      vertex   6.066988e-01  1.750000e-01  1.000000e-01
      vertex   5.500000e-01  1.250000e-01  1.000000e-01
      vertex   6.066988e-01  1.250000e-01  1.000000e-01
    endloop
  endfacet
  facet normal -0.000000e+00  0.000000e+00  1.000000e+00
    outer loop
      vertex   6.066988e-01  1.750000e-01  1.000000e-01
      vertex   6.066988e-01  1.250000e-01  1.000000e-01
      vertex   6.500000e-01  2.500000e-01  1.000000e-01
    endloop
  endfacet
  facet normal  0.000000e+00 -0.000000e+00  1.000000e+00
    outer loop
      vertex   7.000000e-01  0.000000e+00  1.000000e-01
      vertex   7.000000e-01  6.339747e-02  1.000000e-01
      vertex   6.500000e-01  5.000000e-02  1.000000e-01
    endloop
  endfacet
  facet normal  0.000000e+00  0.000000e+00  1.000000e+00
    outer loop
      vertex   6.500000e-01  5.000000e-02  1.000000e-01
      vertex   7.000000e-01  6.339747e-02  1.000000e-01
      vertex   6.500000e-01  1.500000e-01  1.000000e-01
    endloop
  endfacet
  facet normal  0.000000e+00 -0.000000e+00  1.000000e+00
    outer loop
      vertex   6.500000e-01  5.000000e-02  1.000000e-01
      vertex   6.500000e-01  1.500000e-01  1.000000e-01
      vertex   6.066988e-01  1.250000e-01  1.000000e-01
    endloop
  endfacet
  facet normal  0.000000e+00  0.000000e+00  1.000000e+00
    outer loop
      vertex   6.066988e-01  1.250000e-01  1.000000e-01
      vertex   6.500000e-01  1.500000e-01  1.000000e-01
      vertex   7.000000e-01  3.000000e-01  1.000000e-01
    endloop
  endfacet
  facet normal  0.000000e+00  0.000000e+00  1.000000e+00
    outer loop
      vertex   6.066988e-01  1.250000e-01  1.000000e-01
      vertex   7.000000e-01  3.000000e-01  1.000000e-01
      vertex   6.500000e-01  2.500000e-01  1.000000e-01
    endloop
  endfacet
  facet normal  0.000000e+00 -0.000000e+00  1.000000e+00
    outer loop
      vertex   6.500000e-01  2.500000e-01  1.000000e-01
      vertex   7.000000e-01  3.000000e-01  1.000000e-01
      vertex   5.500000e-01  2.500000e-01  1.000000e-01
    endloop
  endfacet
  facet normal  0.000000e+00 -0.000000e+00 -1.000000e+00
    outer loop
      vertex   5.500000e-01  1.250000e-01  0.000000e+00
      vertex   5.500000e-01  5.000000e-02  0.000000e+00
      vertex   5.000000e-01  0.000000e+00  0.000000e+00
    endloop
  endfacet
  facet normal  0.000000e+00  0.000000e+00 -1.000000e+00
    outer loop
      vertex   6.500000e-01  1.500000e-01  0.000000e+00
      vertex   7.000000e-01  6.339747e-02  0.000000e+00
      vertex   7.000000e-01  0.000000e+00  0.000000e+00
    endloop
  endfacet
  facet normal  0.000000e+00  0.000000e+00 -1.000000e+00
    outer loop
      vertex   5.000000e-01  0.000000e+00  0.000000e+00
      vertex   5.500000e-01  5.000000e-02  0.000000e+00
      vertex   7.000000e-01  0.000000e+00  0.000000e+00
    endloop
  endfacet
  facet normal -0.000000e+00  0.000000e+00 -1.000000e+00
    outer loop
      vertex   7.000000e-01  3.000000e-01  0.000000e+00
      vertex   6.500000e-01  2.500000e-01  0.000000e+00
      vertex   5.000000e-01  3.000000e-01  0.000000e+00
    endloop
  endfacet
  facet normal  0.000000e+00  0.000000e+00 -1.000000e+00
    outer loop
      vertex   5.000000e-01  3.000000e-01  0.000000e+00
      vertex   6.500000e-01  2.500000e-01  0.000000e+00
      vertex   5.500000e-01  2.500000e-01  0.000000e+00
    endloop
  endfacet
  facet normal  0.000000e+00  0.000000e+00 -1.000000e+00
    outer loop
      vertex   5.000000e-01  3.000000e-01  0.000000e+00
      vertex   5.500000e-01  2.500000e-01  0.000000e+00
      vertex   5.500000e-01  1.750000e-01  0.000000e+00
    endloop
  endfacet
  facet normal  0.000000e+00  0.000000e+00 -1.000000e+00
    outer loop
      vertex   5.000000e-01  0.000000e+00  0.000000e+00
      vertex   5.000000e-01  3.000000e-01  0.000000e+00
      vertex   5.500000e-01  1.250000e-01  0.000000e+00
    endloop
  endfacet
  facet normal  0.000000e+00  0.000000e+00 -1.000000e+00
    outer loop
      vertex   5.500000e-01  1.250000e-01  0.000000e+00
      vertex   5.000000e-01  3.000000e-01  0.000000e+00
      vertex   5.500000e-01  1.750000e-01  0.000000e+00
    endloop
  endfacet
  facet normal  0.000000e+00  0.000000e+00 -1.000000e+00
    outer loop
      vertex   5.500000e-01  1.250000e-01  0.000000e+00
      vertex   5.500000e-01  1.750000e-01  0.000000e+00
      vertex   6.066988e-01  1.250000e-01  0.000000e+00
    endloop
  endfacet
  facet normal  0.000000e+00  0.000000e+00 -1.000000e+00
    outer loop
      vertex   6.066988e-01  1.250000e-01  0.000000e+00
      vertex   5.500000e-01  1.750000e-01  0.000000e+00
      vertex   6.066988e-01  1.750000e-01  0.000000e+00
    endloop
  endfacet
  facet normal  0.000000e+00  0.000000e+00 -1.000000e+00
    outer loop
      vertex   6.066988e-01  1.250000e-01  0.000000e+00
      vertex   6.066988e-01  1.750000e-01  0.000000e+00
      vertex   6.500000e-01  5.000000e-02  0.000000e+00
    endloop
  endfacet
  facet normal  0.000000e+00 -0.000000e+00 -1.000000e+00
    outer loop
      vertex   7.000000e-01  3.000000e-01  0.000000e+00
      vertex   7.000000e-01  2.366025e-01  0.000000e+00
      vertex   6.500000e-01  2.500000e-01  0.000000e+00
    endloop
  endfacet
  facet normal  0.000000e+00  0.000000e+00 -1.000000e+00
    outer loop
      vertex   6.500000e-01  2.500000e-01  0.000000e+00
      vertex   7.000000e-01  2.366025e-01  0.000000e+00
      vertex   6.500000e-01  1.500000e-01  0.000000e+00
    endloop
  endfacet
  facet normal  0.000000e+00 -0.000000e+00 -1.000000e+00
    outer loop
      vertex   6.500000e-01  2.500000e-01  0.000000e+00
      vertex   6.500000e-01  1.500000e-01  0.000000e+00
      vertex   6.066988e-01  1.750000e-01  0.000000e+00
    endloop
  endfacet
  facet normal  0.000000e+00  0.000000e+00 -1.000000e+00
    outer loop
      vertex   6.066988e-01  1.750000e-01  0.000000e+00
      vertex   6.500000e-01  1.500000e-01  0.000000e+00
      vertex   7.000000e-01  0.000000e+00  0.000000e+00
    endloop
  endfacet
  facet normal  0.000000e+00  0.000000e+00 -1.000000e+00
    outer loop
      vertex   6.066988e-01  1.750000e-01  0.000000e+00
      vertex   7.000000e-01  0.000000e+00  0.000000e+00
      vertex   6.500000e-01  5.000000e-02  0.000000e+00
    endloop
  endfacet
  facet normal -0.000000e+00 -0.000000e+00 -1.000000e+00
    outer loop
      vertex   6.500000e-01  5.000000e-02  0.000000e+00
      vertex   7.000000e-01  0.000000e+00  0.000000e+00
      vertex   5.500000e-01  5.000000e-02  0.000000e+00
    endloop
  endfacet
  facet normal -0.000000e+00  1.000000e+00  0.000000e+00
    outer loop
      vertex   5.000000e-01  3.000000e-01  1.000000e-01
      vertex   7.000000e-01  3.000000e-01  1.000000e-01
      vertex   5.000000e-01  3.000000e-01  0.000000e+00
    endloop
  endfacet
  facet normal  0.000000e+00  1.000000e+00  0.000000e+00
    outer loop
      vertex   5.000000e-01  3.000000e-01  0.000000e+00
      vertex   7.000000e-01  3.000000e-01  1.000000e-01
      vertex   7.000000e-01  3.000000e-01  0.000000e+00
    endloop
  endfacet
  facet normal -1.000000e+00  0.000000e+00  0.000000e+00
    outer loop
      vertex   5.000000e-01  0.000000e+00  1.000000e-01
      vertex   5.000000e-01  3.000000e-01  1.000000e-01
      vertex   5.000000e-01  0.000000e+00  0.000000e+00
    endloop
  endfacet
  facet normal -1.000000e+00  0.000000e+00  0.000000e+00
    outer loop
      vertex   5.000000e-01  0.000000e+00  0.000000e+00
      vertex   5.000000e-01  3.000000e-01  1.000000e-01
      vertex   5.000000e-01  3.000000e-01  0.000000e+00
    endloop
  endfacet
  facet normal -0.000000e+00 -1.000000e+00 -0.000000e+00
    outer loop
      vertex   7.000000e-01  0.000000e+00  1.000000e-01
      vertex   5.000000e-01  0.000000e+00  1.000000e-01
      vertex   7.000000e-01  0.000000e+00  0.000000e+00
    endloop
  endfacet
  facet normal  0.000000e+00 -1.000000e+00  0.000000e+00
    outer loop
      vertex   7.000000e-01  0.000000e+00  0.000000e+00
      vertex   5.000000e-01  0.000000e+00  1.000000e-01
      vertex   5.000000e-01  0.000000e+00  0.000000e+00
    endloop
  endfacet
  facet normal  1.000000e+00  0.000000e+00  0.000000e+00
    outer loop
      vertex   7.000000e-01  6.339747e-02  1.000000e-01
      vertex   7.000000e-01  0.000000e+00  1.000000e-01
      vertex   7.000000e-01  6.339747e-02  0.000000e+00
    endloop
  endfacet
  facet normal  1.000000e+00  0.000000e+00  0.000000e+00
    outer loop
      vertex   7.000000e-01  6.339747e-02  0.000000e+00
      vertex   7.000000e-01  0.000000e+00  1.000000e-01
      vertex   7.000000e-01  0.000000e+00  0.000000e+00
    endloop
  endfacet
  facet normal  8.660253e-01  5.000001e-01  0.000000e+00
    outer loop
      vertex   6.500000e-01  1.500000e-01  1.000000e-01
      vertex   7.000000e-01  6.339747e-02  1.000000e-01
      vertex   6.500000e-01  1.500000e-01  0.000000e+00
    endloop
  endfacet
  facet normal  8.660253e-01  5.000001e-01  0.000000e+00
    outer loop
      vertex   6.500000e-01  1.500000e-01  0.000000e+00
      vertex   7.000000e-01  6.339747e-02  1.000000e-01
      vertex   7.000000e-01  6.339747e-02  0.000000e+00
    endloop
  endfacet
  facet normal  8.660253e-01 -5.000001e-01  0.000000e+00
    outer loop
      vertex   7.000000e-01  2.366025e-01  1.000000e-01
      vertex   6.500000e-01  1.500000e-01  1.000000e-01
      vertex   7.000000e-01  2.366025e-01  0.000000e+00
    endloop
  endfacet
  facet normal  8.660253e-01 -5.000001e-01  0.000000e+00
    outer loop
      vertex   7.000000e-01  2.366025e-01  0.000000e+00
      vertex   6.500000e-01  1.500000e-01  1.000000e-01
      vertex   6.500000e-01  1.500000e-01  0.000000e+00
    endloop
  endfacet
  facet normal  1.000000e+00  0.000000e+00  0.000000e+00
    outer loop
      vertex   7.000000e-01  3.000000e-01  1.000000e-01
      vertex   7.000000e-01  2.366025e-01  1.000000e-01
      vertex   7.000000e-01  3.000000e-01  0.000000e+00
    endloop
  endfacet
  facet normal  1.000000e+00  0.000000e+00  0.000000e+00
    outer loop
      vertex   7.000000e-01  3.000000e-01  0.000000e+00
      vertex   7.000000e-01  2.366025e-01  1.000000e-01
      vertex   7.000000e-01  2.366025e-01  0.000000e+00
    endloop
  endfacet
  facet normal -0.000000e+00 -1.000000e+00 -0.000000e+00
    outer loop
      vertex   6.500000e-01  2.500000e-01  1.000000e-01
      vertex   5.500000e-01  2.500000e-01  1.000000e-01
      vertex   6.500000e-01  2.500000e-01  0.000000e+00
    endloop
  endfacet
  facet normal  0.000000e+00 -1.000000e+00  0.000000e+00
    outer loop
      vertex   6.500000e-01  2.500000e-01  0.000000e+00
      vertex   5.500000e-01  2.500000e-01  1.000000e-01
      vertex   5.500000e-01  2.500000e-01  0.000000e+00
    endloop
  endfacet
  facet normal  1.000000e+00  0.000000e+00  0.000000e+00
    outer loop
      vertex   5.500000e-01  2.500000e-01  1.000000e-01
      vertex   5.500000e-01  1.750000e-01  1.000000e-01
      vertex   5.500000e-01  2.500000e-01  0.000000e+00
    endloop
  endfacet
  facet normal  1.000000e+00  0.000000e+00  0.000000e+00
    outer loop
      vertex   5.500000e-01  2.500000e-01  0.000000e+00
      vertex   5.500000e-01  1.750000e-01  1.000000e-01
      vertex   5.500000e-01  1.750000e-01  0.000000e+00
    endloop
  endfacet
  facet normal -0.000000e+00  1.000000e+00  0.000000e+00
    outer loop
      vertex   5.500000e-01  1.750000e-01  1.000000e-01
      vertex   6.066988e-01  1.750000e-01  1.000000e-01
      vertex   5.500000e-01  1.750000e-01  0.000000e+00
    endloop
  endfacet
  facet normal  0.000000e+00  1.000000e+00  0.000000e+00
    outer loop
      vertex   5.500000e-01  1.750000e-01  0.000000e+00
      vertex   6.066988e-01  1.750000e-01  1.000000e-01
      vertex   6.066988e-01  1.750000e-01  0.000000e+00
    endloop
  endfacet
  facet normal -8.660253e-01  5.000002e-01  0.000000e+00
    outer loop
      vertex   6.066988e-01  1.750000e-01  1.000000e-01
      vertex   6.500000e-01  2.500000e-01  1.000000e-01
      vertex   6.066988e-01  1.750000e-01  0.000000e+00
    endloop
  endfacet
  facet normal -8.660253e-01  5.000002e-01  0.000000e+00
    outer loop
      vertex   6.066988e-01  1.750000e-01  0.000000e+00
      vertex   6.500000e-01  2.500000e-01  1.000000e-01
      vertex   6.500000e-01  2.500000e-01  0.000000e+00
    endloop
  endfacet
  facet normal -8.660253e-01 -5.000001e-01 -0.000000e+00
    outer loop
      vertex   6.500000e-01  5.000000e-02  1.000000e-01
      vertex   6.066988e-01  1.250000e-01  1.000000e-01
      vertex   6.500000e-01  5.000000e-02  0.000000e+00
    endloop
  endfacet
  facet normal -8.660253e-01 -5.000001e-01  0.000000e+00
    outer loop
      vertex   6.500000e-01  5.000000e-02  0.000000e+00
      vertex   6.066988e-01  1.250000e-01  1.000000e-01
      vertex   6.066988e-01  1.250000e-01  0.000000e+00
    endloop
  endfacet
  facet normal -0.000000e+00 -1.000000e+00 -0.000000e+00
    outer loop
      vertex   6.066988e-01  1.250000e-01  1.000000e-01
      vertex   5.500000e-01  1.250000e-01  1.000000e-01
      vertex   6.066988e-01  1.250000e-01  0.000000e+00
    endloop
  endfacet
  facet normal  0.000000e+00 -1.000000e+00  0.000000e+00
    outer loop
      vertex   6.066988e-01  1.250000e-01  0.000000e+00
      vertex   5.500000e-01  1.250000e-01  1.000000e-01
      vertex   5.500000e-01  1.250000e-01  0.000000e+00
    endloop
  endfacet
  facet normal  1.000000e+00  0.000000e+00  0.000000e+00
    outer loop
      vertex   5.500000e-01  1.250000e-01  1.000000e-01
      vertex   5.500000e-01  5.000000e-02  1.000000e-01
      vertex   5.500000e-01  1.250000e-01  0.000000e+00
    endloop
  endfacet
  facet normal  1.000000e+00  0.000000e+00  0.000000e+00
    outer loop
      vertex   5.500000e-01  1.250000e-01  0.000000e+00
      vertex   5.500000e-01  5.000000e-02  1.000000e-01
      vertex   5.500000e-01  5.000000e-02  0.000000e+00
    endloop
  endfacet
  facet normal -0.000000e+00  1.000000e+00  0.000000e+00
    outer loop
      vertex   5.500000e-01  5.000000e-02  1.000000e-01
      vertex   6.500000e-01  5.000000e-02  1.000000e-01
      vertex   5.500000e-01  5.000000e-02  0.000000e+00
    endloop
  endfacet
  facet normal  0.000000e+00  1.000000e+00  0.000000e+00
    outer loop
      vertex   5.500000e-01  5.000000e-02  0.000000e+00
      vertex   6.500000e-01  5.000000e-02  1.000000e-01
      vertex   6.500000e-01  5.000000e-02  0.000000e+00
    endloop
  endfacet
endsolid vcg
